<svg width="34" height="34" viewBox="0 0 34 34" fill="none" xmlns="http://www.w3.org/2000/svg">
<g clip-path="url(#clip0_2022_9868)">
<path d="M0 4.53585C0 3.44188 0.382894 2.53937 1.14865 1.82832C1.9144 1.11724 2.90992 0.761719 4.13514 0.761719C5.33849 0.761719 6.31209 1.11176 7.05598 1.81191C7.82174 2.53392 8.20463 3.4747 8.20463 4.63431C8.20463 5.6845 7.8327 6.55964 7.0888 7.25979C6.32305 7.9818 5.3166 8.3428 4.0695 8.3428H4.03668C2.83332 8.3428 1.85973 7.9818 1.11583 7.25979C0.371932 6.53778 0 5.62979 0 4.53585ZM0.426641 33.2521V11.3293H7.71236V33.2521H0.426641ZM11.749 33.2521H19.0347V21.0108C19.0347 20.245 19.1223 19.6542 19.2973 19.2386C19.6036 18.4947 20.0685 17.8656 20.6921 17.3515C21.3156 16.8373 22.0978 16.5803 23.0386 16.5803C25.4891 16.5803 26.7143 18.2321 26.7143 21.5358V33.2521H34V20.6826C34 17.4445 33.2342 14.9886 31.7027 13.3148C30.1712 11.6411 28.1474 10.8042 25.6313 10.8042C22.8089 10.8042 20.61 12.0185 19.0347 14.447V14.5127H19.0019L19.0347 14.447V11.3293H11.749C11.7928 12.0294 11.8147 14.2064 11.8147 17.8602C11.8147 21.514 11.7928 26.6446 11.749 33.2521Z" fill="black"/>
</g>
<defs>
<clipPath id="clip0_2022_9868">
<rect width="34" height="34" fill="white"/>
</clipPath>
</defs>
</svg>
