<svg width="34" height="34" viewBox="0 0 34 34" fill="none" xmlns="http://www.w3.org/2000/svg">
<path d="M24.3551 12.2732C26.5415 13.8417 29.2199 14.7645 32.1128 14.7645V9.17795C31.5653 9.17806 31.0192 9.12077 30.4836 9.00689V13.4043C27.591 13.4043 24.9129 12.4814 22.7259 10.9131V22.3137C22.7259 28.0168 18.119 32.6398 12.4365 32.6398C10.3162 32.6398 8.34545 31.9965 6.70837 30.8932C8.57683 32.8105 11.1825 33.9999 14.0653 33.9999C19.7482 33.9999 24.3553 29.3769 24.3553 23.6735V12.2732H24.3551ZM26.3648 6.63699C25.2475 5.4119 24.5138 3.82871 24.3551 2.07842V1.35986H22.8112C23.1998 3.58448 24.5253 5.48507 26.3648 6.63699ZM10.3026 26.5168C9.67829 25.6953 9.34093 24.6904 9.34244 23.6572C9.34244 21.0488 11.4496 18.9338 14.0493 18.9338C14.5337 18.9337 15.0153 19.0082 15.477 19.1552V13.4438C14.9375 13.3695 14.3929 13.338 13.8486 13.3496V17.7951C13.3865 17.6481 12.9047 17.5734 12.4201 17.5739C9.82042 17.5739 7.71338 19.6886 7.71338 22.2973C7.71338 24.1419 8.76661 25.7389 10.3026 26.5168Z" fill="black"/>
<path d="M22.7258 10.913C24.9128 12.4813 27.5909 13.4042 30.4836 13.4042V9.00677C28.8689 8.66161 27.4395 7.81482 26.3648 6.63699C24.5251 5.48495 23.1997 3.58437 22.8111 1.35986H18.7558V23.6733C18.7466 26.2746 16.643 28.3809 14.049 28.3809C12.5203 28.3809 11.1623 27.6496 10.3022 26.5168C8.76631 25.7389 7.71308 24.1418 7.71308 22.2974C7.71308 19.6889 9.82012 17.574 12.4198 17.574C12.9179 17.574 13.3979 17.6518 13.8483 17.7952V13.3497C8.26555 13.4655 3.7757 18.0433 3.7757 23.6734C3.7757 26.4839 4.89377 29.0317 6.70842 30.8933C8.3455 31.9965 10.3162 32.6399 12.4365 32.6399C18.1192 32.6399 22.7259 28.0167 22.7259 22.3137V10.913H22.7258Z" fill="black"/>
<path d="M30.4836 9.00688V7.81785C29.0276 7.82007 27.6001 7.41085 26.3648 6.63699C27.4584 7.8385 28.8983 8.66698 30.4836 9.00688ZM22.8112 1.35998C22.7741 1.14737 22.7456 0.933372 22.7259 0.718553V0H17.1265V22.3136C17.1176 24.9146 15.0141 27.0209 12.4198 27.0209C11.6582 27.0209 10.939 26.8394 10.3022 26.517C11.1623 27.6497 12.5203 28.3809 14.049 28.3809C16.6428 28.3809 18.7468 26.2748 18.7558 23.6735V1.35998H22.8112ZM13.8485 13.3498V12.084C13.3807 12.0198 12.909 11.9876 12.4367 11.9879C6.75355 11.9877 2.14667 16.611 2.14667 22.3136C2.14667 25.8889 3.95725 29.0398 6.70857 30.8932C4.89392 29.0317 3.77584 26.4838 3.77584 23.6734C3.77584 18.0434 8.26558 13.4656 13.8485 13.3498Z" fill="black"/>
</svg>
