<svg width="34" height="34" viewBox="0 0 34 34" fill="none" xmlns="http://www.w3.org/2000/svg">
<path d="M33.2997 8.82496C32.9076 7.36862 31.7593 6.22036 30.303 5.82827C27.6424 5.1001 16.9999 5.1001 16.9999 5.1001C16.9999 5.1001 6.35747 5.1001 3.69685 5.80026C2.26852 6.19235 1.09225 7.36862 0.700162 8.82496C0 11.4856 0 17.0028 0 17.0028C0 17.0028 0 22.5481 0.700162 25.1807C1.09225 26.6371 2.24052 27.7853 3.69685 28.1774C6.38547 28.9056 16.9999 28.9056 16.9999 28.9056C16.9999 28.9056 27.6424 28.9056 30.303 28.2054C31.7593 27.8133 32.9076 26.6651 33.2997 25.2087C33.9999 22.5481 33.9999 17.0309 33.9999 17.0309C33.9999 17.0309 34.0279 11.4856 33.2997 8.82496Z" fill="black"/>
<path d="M13.6111 22.1001L22.4612 17.0029L13.6111 11.9058V22.1001Z" fill="#BAE800"/>
</svg>
