<svg width="18" height="18" viewBox="0 0 18 18" fill="none" xmlns="http://www.w3.org/2000/svg">
<path d="M11.3256 11.2704L11.8694 11.7869L11.8694 11.7869L11.3256 11.2704ZM11.6672 10.9108L11.1234 10.3943L11.1234 10.3943L11.6672 10.9108ZM13.4796 10.6592L13.8538 10.0092L13.8538 10.0092L13.4796 10.6592ZM14.9125 11.484L14.5384 12.134L14.5384 12.134L14.9125 11.484ZM15.3163 14.0688L14.7725 13.5523L14.7725 13.5523L15.3163 14.0688ZM14.2509 15.1905L13.7071 14.674L13.7071 14.674L14.2509 15.1905ZM5.86155 12.3564L5.31776 12.8729L5.31776 12.8729L5.86155 12.3564ZM3.00112 5.18425C2.97892 4.77064 2.62562 4.45333 2.212 4.47553C1.79838 4.49773 1.48107 4.85103 1.50328 5.26465L3.00112 5.18425ZM6.89306 6.60381L6.34927 6.08729L6.34927 6.08729L6.89306 6.60381ZM7.10817 6.37733L7.65196 6.89385L7.65196 6.89385L7.10817 6.37733ZM7.22571 4.26983L6.61332 4.70281L6.61332 4.70281L7.22571 4.26983ZM6.27997 2.93221L5.66758 3.36519L5.66758 3.36519L6.27997 2.93221ZM8.29737 9.79192L8.84117 9.27541L8.84117 9.27541L8.29737 9.79192ZM3.40233 2.18997C3.11706 2.49029 3.12927 2.96501 3.4296 3.25028C3.72993 3.53554 4.20465 3.52333 4.48991 3.223L3.40233 2.18997ZM13.2572 15.7223L13.1836 14.9759L13.1836 14.9759L13.2572 15.7223ZM7.89831 15.018C8.24903 15.2384 8.712 15.1327 8.93239 14.782C9.15279 14.4313 9.04714 13.9684 8.69643 13.748L7.89831 15.018ZM11.3732 14.8603C10.9677 14.7754 10.5703 15.0353 10.4854 15.4407C10.4005 15.8461 10.6603 16.2436 11.0657 16.3285L11.3732 14.8603ZM11.3256 11.2704L11.8694 11.7869L12.2109 11.4273L11.6672 10.9108L11.1234 10.3943L10.7818 10.7539L11.3256 11.2704ZM13.4796 10.6592L13.1055 11.3093L14.5384 12.134L14.9125 11.484L15.2867 10.834L13.8538 10.0092L13.4796 10.6592ZM15.3163 14.0688L14.7725 13.5523L13.7071 14.674L14.2509 15.1905L14.7947 15.707L15.8601 14.5853L15.3163 14.0688ZM5.86155 12.3564L6.40535 11.8399C3.53038 8.81308 3.05962 6.27419 3.00112 5.18425L2.2522 5.22445L1.50328 5.26465C1.57999 6.69399 2.18575 9.57549 5.31776 12.8729L5.86155 12.3564ZM6.89306 6.60381L7.43685 7.12032L7.65196 6.89385L7.10817 6.37733L6.56438 5.86082L6.34927 6.08729L6.89306 6.60381ZM7.22571 4.26983L7.83811 3.83684L6.89237 2.49923L6.27997 2.93221L5.66758 3.36519L6.61332 4.70281L7.22571 4.26983ZM6.89306 6.60381C6.34927 6.08729 6.34857 6.08802 6.34788 6.08875C6.34765 6.089 6.34695 6.08974 6.34648 6.09024C6.34553 6.09125 6.34458 6.09227 6.34361 6.09331C6.34167 6.09539 6.33969 6.09755 6.33765 6.09979C6.33358 6.10426 6.32932 6.10904 6.32489 6.11414C6.31602 6.12434 6.30646 6.13579 6.29637 6.14854C6.27619 6.17404 6.25387 6.20474 6.23076 6.24085C6.1844 6.3133 6.13536 6.4068 6.09423 6.52239C6.01035 6.75809 5.96785 7.06177 6.02204 7.43161C6.12807 8.15526 6.5956 9.08931 7.75358 10.3084L8.29737 9.79192L8.84117 9.27541C7.78289 8.16124 7.54826 7.50123 7.5062 7.21415C7.49598 7.14443 7.49699 7.09658 7.4997 7.06795C7.50239 7.03942 7.50715 7.02602 7.50742 7.02527C7.50778 7.02426 7.50485 7.03275 7.49424 7.04933C7.489 7.05752 7.48196 7.06757 7.47259 7.07941C7.46791 7.08533 7.46263 7.0917 7.45671 7.09852C7.45374 7.10192 7.45061 7.10545 7.44731 7.10908C7.44565 7.1109 7.44396 7.11274 7.44221 7.11462C7.44134 7.11555 7.44046 7.1165 7.43957 7.11745C7.43912 7.11792 7.43844 7.11864 7.43822 7.11888C7.43754 7.1196 7.43685 7.12032 6.89306 6.60381ZM8.29737 9.79192L7.75358 10.3084C8.90706 11.5228 9.80484 12.0299 10.5223 12.1465C10.8926 12.2066 11.2002 12.1595 11.4393 12.0652C11.5557 12.0193 11.649 11.9649 11.7202 11.9143C11.7558 11.8891 11.7858 11.8649 11.8105 11.8432C11.8229 11.8324 11.8339 11.8222 11.8437 11.8127C11.8486 11.808 11.8532 11.8035 11.8575 11.7992C11.8596 11.797 11.8617 11.7949 11.8636 11.7929C11.8646 11.7919 11.8656 11.7909 11.8666 11.7899C11.867 11.7894 11.8677 11.7886 11.868 11.7884C11.8687 11.7876 11.8694 11.7869 11.3256 11.2704C10.7818 10.7539 10.7825 10.7532 10.7831 10.7524C10.7834 10.7522 10.7841 10.7515 10.7845 10.751C10.7854 10.7501 10.7863 10.7492 10.7872 10.7482C10.789 10.7464 10.7908 10.7446 10.7925 10.7428C10.796 10.7393 10.7994 10.736 10.8026 10.7328C10.8092 10.7265 10.8155 10.7208 10.8213 10.7156C10.8331 10.7053 10.8434 10.6972 10.8525 10.6908C10.8707 10.6779 10.8832 10.6721 10.8889 10.6698C10.9065 10.6629 10.8725 10.6837 10.7628 10.6658C10.5203 10.6265 9.90394 10.3943 8.84117 9.27541L8.29737 9.79192ZM6.27997 2.93221L6.89237 2.49923C6.06952 1.33543 4.40988 1.1292 3.40233 2.18997L3.94612 2.70648L4.48991 3.223C4.79412 2.90272 5.34597 2.91032 5.66758 3.36519L6.27997 2.93221ZM14.2509 15.1905L13.7071 14.674C13.5183 14.8727 13.3385 14.9607 13.1836 14.9759L13.2572 15.7223L13.3309 16.4687C13.9491 16.4077 14.4416 16.0787 14.7947 15.707L14.2509 15.1905ZM7.10817 6.37733L7.65196 6.89385C8.4429 6.06114 8.49473 4.76554 7.83811 3.83684L7.22571 4.26983L6.61332 4.70281C6.88135 5.08191 6.83327 5.57772 6.56438 5.86082L7.10817 6.37733ZM14.9125 11.484L14.5384 12.134C15.0525 12.4299 15.1456 13.1595 14.7725 13.5523L15.3163 14.0688L15.8601 14.5853C16.9253 13.4638 16.6129 11.5973 15.2867 10.834L14.9125 11.484ZM11.6672 10.9108L12.2109 11.4273C12.439 11.1872 12.7942 11.1301 13.1055 11.3093L13.4796 10.6592L13.8538 10.0092C12.9567 9.49288 11.8397 9.64006 11.1234 10.3943L11.6672 10.9108ZM8.29737 14.383L8.69643 13.748C7.97253 13.293 7.19935 12.6758 6.40534 11.8399L5.86155 12.3564L5.31776 12.8729C6.1935 13.7949 7.06304 14.4931 7.89831 15.018L8.29737 14.383ZM13.2572 15.7223L13.1836 14.9759C12.7898 15.0148 12.1606 15.0252 11.3732 14.8603L11.2194 15.5944L11.0657 16.3285C12.0234 16.529 12.8079 16.5203 13.3309 16.4687L13.2572 15.7223Z" fill="#1C274C"/>
</svg>
